<svg xmlns="http://www.w3.org/2000/svg" xmlns:xlink="http://www.w3.org/1999/xlink" version="1.1" width="256" height="256" viewBox="0 0 256 256" xml:space="preserve">

<defs>
</defs>
<g style="stroke: none; stroke-width: 0; stroke-dasharray: none; stroke-linecap: butt; stroke-linejoin: miter; stroke-miterlimit: 10; fill: none; fill-rule: nonzero; opacity: 1;" transform="translate(1.4065934065934016 1.4065934065934016) scale(2.81 2.81)" >
	<path d="M 83.06 87.012 H 6.94 c -1.383 0 -2.505 -1.122 -2.505 -2.505 V 24.339 h 81.131 v 60.169 C 85.566 85.891 84.444 87.012 83.06 87.012 z" style="stroke: none; stroke-width: 1; stroke-dasharray: none; stroke-linecap: butt; stroke-linejoin: miter; stroke-miterlimit: 10; fill: rgb(210,213,224); fill-rule: nonzero; opacity: 1;" transform=" matrix(1 0 0 1 0 0) " stroke-linecap="round" />
	<path d="M 43.73 73.418 H 17.882 c -2.266 0 -4.104 -1.837 -4.104 -4.104 V 42.037 c 0 -2.266 1.837 -4.104 4.104 -4.104 H 43.73 c 2.266 0 4.104 1.837 4.104 4.104 v 27.278 C 47.833 71.581 45.996 73.418 43.73 73.418 z" style="stroke: none; stroke-width: 1; stroke-dasharray: none; stroke-linecap: butt; stroke-linejoin: miter; stroke-miterlimit: 10; fill: rgb(77,210,244); fill-rule: nonzero; opacity: 1;" transform=" matrix(1 0 0 1 0 0) " stroke-linecap="round" />
	<path d="M 43.729 74.619 H 17.882 c -2.925 0 -5.304 -2.38 -5.304 -5.305 V 42.037 c 0 -2.925 2.379 -5.304 5.304 -5.304 h 25.847 c 2.925 0 5.305 2.379 5.305 5.304 v 27.278 C 49.034 72.239 46.654 74.619 43.729 74.619 z M 17.882 39.134 c -1.601 0 -2.903 1.302 -2.903 2.903 v 27.278 c 0 1.601 1.302 2.902 2.903 2.902 h 25.847 c 1.601 0 2.902 -1.302 2.902 -2.902 V 42.037 c 0 -1.601 -1.302 -2.903 -2.902 -2.903 H 17.882 z" style="stroke: none; stroke-width: 1; stroke-dasharray: none; stroke-linecap: butt; stroke-linejoin: miter; stroke-miterlimit: 10; fill: rgb(153,151,162); fill-rule: nonzero; opacity: 1;" transform=" matrix(1 0 0 1 0 0) " stroke-linecap="round" />
	<path d="M 76.41 85.811 H 57.248 V 44.356 c 0 -3.205 2.598 -5.804 5.804 -5.804 h 7.555 c 3.205 0 5.804 2.598 5.804 5.804 V 85.811 z" style="stroke: none; stroke-width: 1; stroke-dasharray: none; stroke-linecap: butt; stroke-linejoin: miter; stroke-miterlimit: 10; fill: rgb(77,210,244); fill-rule: nonzero; opacity: 1;" transform=" matrix(1 0 0 1 0 0) " stroke-linecap="round" />
	<path d="M 77.611 87.012 H 56.047 V 44.356 c 0 -3.862 3.143 -7.004 7.005 -7.004 h 7.555 c 3.862 0 7.005 3.142 7.005 7.004 V 87.012 z M 58.449 84.61 h 16.76 V 44.356 c 0 -2.538 -2.064 -4.603 -4.603 -4.603 h -7.555 c -2.538 0 -4.603 2.065 -4.603 4.603 V 84.61 z" style="stroke: none; stroke-width: 1; stroke-dasharray: none; stroke-linecap: butt; stroke-linejoin: miter; stroke-miterlimit: 10; fill: rgb(153,151,162); fill-rule: nonzero; opacity: 1;" transform=" matrix(1 0 0 1 0 0) " stroke-linecap="round" />
	<path d="M 12.857 2.988 h -0.927 C 5.341 2.988 0 8.329 0 14.918 l 0 10.544 c 0 3.55 2.878 6.429 6.429 6.429 h 0 c 3.55 0 6.429 -2.878 6.429 -6.429 V 2.988 z" style="stroke: none; stroke-width: 1; stroke-dasharray: none; stroke-linecap: butt; stroke-linejoin: miter; stroke-miterlimit: 10; fill: rgb(240,84,37); fill-rule: nonzero; opacity: 1;" transform=" matrix(1 0 0 1 0 0) " stroke-linecap="round" />
	<path d="M 25.714 2.988 H 12.857 v 22.474 c 0 3.55 2.878 6.429 6.429 6.429 h 0 c 3.55 0 6.429 -2.878 6.429 -6.429 V 2.988 z" style="stroke: none; stroke-width: 1; stroke-dasharray: none; stroke-linecap: butt; stroke-linejoin: miter; stroke-miterlimit: 10; fill: rgb(220,9,36); fill-rule: nonzero; opacity: 1;" transform=" matrix(1 0 0 1 0 0) " stroke-linecap="round" />
	<path d="M 38.571 2.988 H 25.714 v 22.474 c 0 3.55 2.878 6.429 6.429 6.429 h 0 c 3.55 0 6.429 -2.878 6.429 -6.429 V 2.988 z" style="stroke: none; stroke-width: 1; stroke-dasharray: none; stroke-linecap: butt; stroke-linejoin: miter; stroke-miterlimit: 10; fill: rgb(240,84,37); fill-rule: nonzero; opacity: 1;" transform=" matrix(1 0 0 1 0 0) " stroke-linecap="round" />
	<path d="M 51.429 2.988 H 38.571 v 22.474 c 0 3.55 2.878 6.429 6.429 6.429 h 0 c 3.55 0 6.429 -2.878 6.429 -6.429 V 2.988 z" style="stroke: none; stroke-width: 1; stroke-dasharray: none; stroke-linecap: butt; stroke-linejoin: miter; stroke-miterlimit: 10; fill: rgb(220,9,36); fill-rule: nonzero; opacity: 1;" transform=" matrix(1 0 0 1 0 0) " stroke-linecap="round" />
	<path d="M 64.286 2.988 H 51.429 v 22.474 c 0 3.55 2.878 6.429 6.429 6.429 h 0 c 3.55 0 6.429 -2.878 6.429 -6.429 V 2.988 z" style="stroke: none; stroke-width: 1; stroke-dasharray: none; stroke-linecap: butt; stroke-linejoin: miter; stroke-miterlimit: 10; fill: rgb(240,84,37); fill-rule: nonzero; opacity: 1;" transform=" matrix(1 0 0 1 0 0) " stroke-linecap="round" />
	<path d="M 77.143 2.988 H 64.286 v 22.474 c 0 3.55 2.878 6.429 6.429 6.429 h 0 c 3.55 0 6.429 -2.878 6.429 -6.429 V 2.988 z" style="stroke: none; stroke-width: 1; stroke-dasharray: none; stroke-linecap: butt; stroke-linejoin: miter; stroke-miterlimit: 10; fill: rgb(220,9,36); fill-rule: nonzero; opacity: 1;" transform=" matrix(1 0 0 1 0 0) " stroke-linecap="round" />
	<path d="M 78.069 2.988 h -0.927 v 22.474 c 0 3.55 2.878 6.429 6.429 6.429 h 0 c 3.55 0 6.429 -2.878 6.429 -6.429 V 14.918 C 90 8.329 84.659 2.988 78.069 2.988 z" style="stroke: none; stroke-width: 1; stroke-dasharray: none; stroke-linecap: butt; stroke-linejoin: miter; stroke-miterlimit: 10; fill: rgb(240,84,37); fill-rule: nonzero; opacity: 1;" transform=" matrix(1 0 0 1 0 0) " stroke-linecap="round" />
</g>
</svg>